<?xml version="1.0" encoding="UTF-8"?>
<svg width="8px" height="10px" viewBox="0 0 8 10" version="1.1" xmlns="http://www.w3.org/2000/svg" xmlns:xlink="http://www.w3.org/1999/xlink">
    <!-- Generator: sketchtool 58 (101010) - https://sketch.com -->
    <title>F43FF6C4-6D4D-45FF-880C-0B1AD174666E</title>
    <desc>Created with sketchtool.</desc>
    <g id="Dev_Challenge_V2" stroke="none" stroke-width="1" fill="none" fill-rule="evenodd">
        <g id="iPhoneSE-Expanded-HD" transform="translate(-834.000000, -474.000000)" fill="#2C2C2C" fill-rule="nonzero">
            <g id="Sheets-/-Inner-Sheet" transform="translate(567.000000, 218.000000)">
                <g id="Cards-/-List-1-up-/-Filled-/-Image-Left-/-Resting" transform="translate(15.000000, 22.000000)">
                    <g id="Group-2-Copy-4" transform="translate(12.000000, 142.000000)">
                        <g id="Comment-Copy" transform="translate(30.000000, 89.000000)">
                            <g id="Group-2">
                                <path d="M217.492,3.792 L217.492,4.8 L210.508,4.8 L210.508,3.792 L212.248,3.792 L212.764,3.3 L215.248,3.3 L215.764,3.792 L217.492,3.792 Z M211,11.292 L211,5.292 L217,5.292 L217,11.292 C217,11.5640014 216.900001,11.799999 216.7,12 C216.5,12.200001 216.264001,12.3 215.992,12.3 L212.008,12.3 C211.735999,12.3 211.5,12.200001 211.3,12 C211.099999,11.799999 211,11.5640014 211,11.292 Z" id="delete---material"></path>
                            </g>
                        </g>
                    </g>
                </g>
            </g>
        </g>
    </g>
</svg>